M48
METRIC
T1F00S00C0.600
T2F00S00C0.800
T3F00S00C0.900
T4F00S00C1.000
T5F00S00C2.500
%
M71
G05
T1
X24.4475Y1.4288
X5.3975Y1.4288
X29.0513Y27.1463
X29.0513Y22.7013
X29.0513Y10.5569
X0.7938Y9.0488
X0.7938Y15.5575
X29.0513Y15.7163
X19.1294Y17.6213
X9.3663Y17.6213
X14.5256Y10.0013
X14.3669Y24.5269
X9.3663Y31.2738
X16.7481Y29.6069
X28.2575Y29.6863
X25.7175Y19.2088
X16.5100Y10.0013
X4.6038Y27.7813
X16.1131Y27.3050
X4.6038Y21.7488
X9.3663Y10.4775
X12.0650Y24.6063
X10.7950Y25.7175
X17.7006Y27.3050
X6.9850Y7.3025
X2.5400Y10.7950
X20.3994Y19.7644
X22.3044Y19.7644
X22.3044Y23.7331
X19.0500Y25.3206
X19.0500Y28.5750
T2
X11.1125Y13.0175
X13.6525Y13.0175
X16.1925Y13.0175
X18.7325Y13.0175
T3
X12.7225Y4.7300
X17.1225Y4.7300
T4
X2.5400Y32.0675
X2.5400Y29.5275
X2.5400Y26.9875
X2.5400Y24.4475
X2.5400Y21.9075
X28.0988Y5.7944
X28.0988Y8.3344
T5
X27.6225Y39.0525
X2.2225Y39.0525
X2.2225Y2.2225
X27.6225Y2.2225
M17
M30
